<mxfile host="app.diagrams.net" modified="2023-05-24T13:26:53.231Z" agent="Mozilla/5.0 (X11; Linux x86_64) AppleWebKit/537.36 (KHTML, like Gecko) Chrome/113.0.0.0 Safari/537.36" version="21.3.3" etag="h0XYPcgkNN3U5UVnO3Sp" type="github">
  <diagram name="Page-1" id="5FS1pqAuRomtlN8CvkBf">
    <mxGraphModel>
      <root>
        <mxCell id="0" />
        <mxCell id="1" parent="0" />
      </root>
    </mxGraphModel>
  </diagram>
</mxfile>
